<?xml version="1.0" encoding="utf-8"?>
<!-- Generator: Adobe Illustrator 26.1.0, SVG Export Plug-In . SVG Version: 6.00 Build 0)  -->
<svg xmlns="http://www.w3.org/2000/svg" xmlns:xlink="http://www.w3.org/1999/xlink" version="1.1" id="Слой_1" x="0px" y="0px" viewBox="0 0 64 64" style="enable-background:new 0 0 64 64;" xml:space="preserve">
<style type="text/css">
	.st0{fill:none;stroke:#FFCC33;stroke-width:4;stroke-miterlimit:10;}
	.st1{fill:none;stroke:#FFCC33;stroke-width:3;stroke-miterlimit:10;}
	.st2{fill:none;stroke:#FFCC33;stroke-width:2;stroke-miterlimit:10;}
</style>
<g>
	<ellipse class="st0" cx="38.9" cy="35.7" rx="7.5" ry="10"/>
	<path class="st0" d="M27.7,28.6c-1.4-1.8-3.2-2.9-5.3-2.9c-4.1,0-7.5,4.5-7.5,10s3.4,10,7.5,10c2.1,0,4-1.1,5.3-2.9"/>
</g>
<path class="st1" d="M50.8,39.9c0-2,1.2-2.8,2.8-2.8s2.8,1.1,2.8,2.5c0,0.7-0.3,1.3-0.8,1.7c0,0-4.7,2-4.7,4.5h6.5"/>
<path class="st2" d="M55.2,50c10,0.2,9.9-19,1-17.5c3.5-15.4-14.9-24.3-23.8-14.2c-8.1-9.6-25.5-1.2-21.2,13.2  C0.1,27.2-3,49.8,8.7,50H55.2"/>
</svg>
