<?xml version="1.0" encoding="utf-8"?>
<!-- Generator: Adobe Illustrator 26.1.0, SVG Export Plug-In . SVG Version: 6.00 Build 0)  -->
<svg xmlns="http://www.w3.org/2000/svg" xmlns:xlink="http://www.w3.org/1999/xlink" version="1.1" id="Layer_1" x="0px" y="0px" viewBox="0 0 231.2 232.3" style="enable-background:new 0 0 231.2 232.3;" xml:space="preserve">
<style type="text/css">
	.st0{fill:#FFFFFF;stroke:#000000;stroke-width:6;stroke-miterlimit:10;}
	.st1{fill:#D42416;}
	.st2{fill:#23C703;}
	.st3{fill:#039BE5;}
	.st4{fill:#FFFFFF;}
</style>
<g>
	<path class="st0" d="M115.6,230.9c-62.9,0-114-51.2-114-114.1s51.2-114,114-114s114,51.2,114,114S178.5,230.9,115.6,230.9z    M115.6,24.7c-50.8,0-92.1,41.3-92.1,92.1s41.3,92.1,92.1,92.1s92.1-41.3,92.1-92.1S166.4,24.7,115.6,24.7z"/>
</g>
<g>
	<path class="st1" d="M51.4,181.1c-16.9-16.9-26.7-40.2-26.7-64.2s9.7-47.3,26.7-64.2L72.8,74c-11.3,11.3-17.9,26.8-17.9,42.9   s6.5,31.6,17.9,42.9L51.4,181.1z"/>
	<path class="st2" d="M158.7,74.1c-11.3-11.3-27-17.9-43-17.9s-31.6,6.5-43,17.9L51.4,52.8C68.3,36,91.8,26.2,115.8,26.2   s47.4,9.6,64.4,26.6L158.7,74.1z"/>
	<path class="st3" d="M180.1,181.1l-21.4-21.3c11.3-11.3,17.9-26.9,17.9-42.9s-6.5-31.6-17.9-42.9l21.4-21.3   c16.9,16.9,26.7,40.4,26.7,64.2S197,164.2,180.1,181.1z"/>
</g>
<g>
	<path class="st0" d="M134.8,114.5c-0.1,10.1-8.3,18.2-18.4,18.2c-24-0.6-23.7-36.4,0.3-36.6"/>
	<polyline class="st0" points="132.7,123.1 184.1,48.9 108.8,97.7  "/>
</g>
<g>
	<path class="st3" d="M154.7,198.3c0-18.3-39.1-62.9-39.1-62.9s-39.1,44.5-39.1,62.9C76.8,241.8,154.5,241.7,154.7,198.3z"/>
	<path class="st4" d="M108.7,217.9c-10.8,1.9-26.7-16.7-12.9-19.7c8.2,0.5,2.4,10.9,12.8,10.9C115.1,209.2,115.2,218,108.7,217.9z"/>
</g>
</svg>
