<?xml version="1.0" encoding="utf-8"?>
<svg xmlns="http://www.w3.org/2000/svg" xmlns:xlink="http://www.w3.org/1999/xlink" version="1.1" id="Слой_1" x="0px" y="0px" viewBox="0 0 298.8 299.7" style="enable-background:new 0 0 298.8 299.7;" xml:space="preserve">
<style type="text/css">
	.st0{fill:#AA5E00;stroke:#000000;stroke-miterlimit:10;}
	.st1{fill:#F18904;stroke:#000000;stroke-width:3;stroke-miterlimit:10;}
	.st2{fill:none;stroke:#000000;stroke-width:3;stroke-miterlimit:10;}
</style>
<path class="st0" d="M35.9,210.7"/>
<path class="st0" d="M262.7,210.7"/>
<path class="st1" d="M64.2,213.1c0-47,38.1-85,85-85s85,38.1,85,85"/>
<g>
	<path class="st1" d="M6.2,232.4c0,4.9,4,8.8,8.8,8.8h268.1c4.9,0,8.8-4,8.8-8.8c0-4.9-4-8.8-8.8-8.8h-268   C10.2,223.6,6.2,227.5,6.2,232.4C6.2,232.4,6.2,227.5,6.2,232.4z"/>
	<path class="st1" d="M6.2,232.4c0,4.9,4,8.8,8.8,8.8h268.1c4.9,0,8.8-4,8.8-8.8c0-4.9-4-8.8-8.8-8.8h-268   C10.2,223.6,6.2,227.5,6.2,232.4C6.2,232.4,6.2,227.5,6.2,232.4z"/>
</g>
<path class="st1" d="M209.7,139.5L209.7,139.5c2.9,2.9,7.6,2.9,10.5,0L270.7,89c2.9-2.9,2.9-7.6,0-10.5l0,0c-2.9-2.9-7.6-2.9-10.5,0  L209.7,129C206.8,131.9,206.8,136.6,209.7,139.5z"/>
<path class="st1" d="M146.4,117.6L146.4,117.6c4.1,0,7.4-3.3,7.4-7.4V38.7c0-4.1-3.3-7.4-7.4-7.4l0,0c-4.1,0-7.4,3.3-7.4,7.4v71.5  C139,114.3,142.3,117.6,146.4,117.6z"/>
<path class="st1" d="M19.9,78.5L19.9,78.5c-2.9,2.9-2.9,7.6,0,10.5l50.5,50.5c2.9,2.9,7.6,2.9,10.5,0l0,0c2.9-2.9,2.9-7.6,0-10.5  L30.4,78.5C27.5,75.6,22.8,75.6,19.9,78.5z"/>
<line class="st2" x1="63.3" y1="213.1" x2="234.3" y2="213.1"/>
</svg>
