<?xml version="1.0" encoding="utf-8"?>
<svg xmlns="http://www.w3.org/2000/svg" xmlns:xlink="http://www.w3.org/1999/xlink" version="1.1" id="Слой_1" x="0px" y="0px" viewBox="0 0 298.8 299.7" style="enable-background:new 0 0 298.8 299.7;" xml:space="preserve">
<style type="text/css">
	.st0{fill:#FFFF78;stroke:#000000;stroke-miterlimit:10;}
</style>
<circle class="st0" cx="149" cy="149.8" r="54"/>
<path class="st0" d="M40.7,41.6L40.7,41.6c-2.9,2.9-2.9,7.6,0,10.5l50.5,50.5c2.9,2.9,7.6,2.9,10.5,0l0,0c2.9-2.9,2.9-7.6,0-10.5  L51.2,41.6C48.3,38.7,43.6,38.7,40.7,41.6z"/>
<path class="st0" d="M193.7,194.6L193.7,194.6c-2.9,2.9-2.9,7.6,0,10.5l50.5,50.5c2.9,2.9,7.6,2.9,10.5,0l0,0  c2.9-2.9,2.9-7.6,0-10.5l-50.5-50.5C201.3,191.7,196.6,191.7,193.7,194.6z"/>
<path class="st0" d="M42.9,255.9L42.9,255.9c2.9,2.9,7.6,2.9,10.5,0l50.5-50.5c2.9-2.9,2.9-7.6,0-10.5l0,0c-2.9-2.9-7.6-2.9-10.5,0  l-50.5,50.5C40,248.3,40,253,42.9,255.9z"/>
<path class="st0" d="M193.7,105.1L193.7,105.1c2.9,2.9,7.6,2.9,10.5,0l50.5-50.5c2.9-2.9,2.9-7.6,0-10.5l0,0  c-2.9-2.9-7.6-2.9-10.5,0l-50.5,50.5C190.8,97.5,190.8,102.2,193.7,105.1z"/>
<path class="st0" d="M212,149.3L212,149.3c0,4.1,3.3,7.4,7.4,7.4h71.5c4.1,0,7.4-3.3,7.4-7.4v0c0-4.1-3.3-7.4-7.4-7.4h-71.5  C215.3,141.8,212,145.2,212,149.3z"/>
<path class="st0" d="M0.5,149.8L0.5,149.8c0,4.1,3.3,7.4,7.4,7.4h71.5c4.1,0,7.4-3.3,7.4-7.4v0c0-4.1-3.3-7.4-7.4-7.4H7.9  C3.8,142.4,0.5,145.7,0.5,149.8z"/>
<path class="st0" d="M149.5,86.8L149.5,86.8c4.1,0,7.4-3.3,7.4-7.4V7.9c0-4.1-3.3-7.4-7.4-7.4h0c-4.1,0-7.4,3.3-7.4,7.4v71.5  C142.1,83.5,145.4,86.8,149.5,86.8z"/>
<path class="st0" d="M149,299.2L149,299.2c4.1,0,7.4-3.3,7.4-7.4v-71.5c0-4.1-3.3-7.4-7.4-7.4h0c-4.1,0-7.4,3.3-7.4,7.4v71.5  C141.5,295.9,144.8,299.2,149,299.2z"/>
</svg>
