<?xml version="1.0" encoding="utf-8"?>
<svg xmlns="http://www.w3.org/2000/svg" xmlns:xlink="http://www.w3.org/1999/xlink" version="1.1" id="Слой_1" x="0px" y="0px" viewBox="0 0 298.8 299.7" enable-background="new 0 0 298.8 299.7" xml:space="preserve">
<ellipse fill="#899EAA" stroke="#000000" stroke-width="6" stroke-miterlimit="10" cx="149" cy="150.7" rx="142" ry="143.5"/>
<polygon fill="#FFFFFF" stroke="#000000" stroke-width="2" stroke-miterlimit="10" points="73.8,142.4 78.8,119 83.8,142.4   107.3,147.4 83.8,152.5 78.8,175.9 73.8,152.5 50.3,147.4 "/>
<polygon fill="#FFFFFF" stroke="#000000" stroke-width="2" stroke-miterlimit="10" points="138.6,68.6 143.7,45.1 148.7,68.6   172.1,73.6 148.7,78.7 143.7,102.1 138.6,78.7 115.1,73.6 "/>
<path fill="#FFFFFF" stroke="#000000" stroke-width="6" stroke-miterlimit="10" d="M205.2,51.1c9.3,16.5,14.7,35.5,14.7,55.8  c0,62.6-50.8,113.4-113.4,113.4c-20.3,0-39.3-5.3-55.8-14.7c19.5,34.4,56.4,57.6,98.7,57.6c62.6,0,113.4-50.8,113.4-113.4  C262.8,107.5,239.6,70.6,205.2,51.1z"/>
</svg>
