<?xml version="1.0" encoding="utf-8"?>
<svg xmlns="http://www.w3.org/2000/svg" xmlns:xlink="http://www.w3.org/1999/xlink" version="1.1" id="Слой_1" x="0px" y="0px" viewBox="0 0 298.8 299.7" style="enable-background:new 0 0 298.8 299.7;" xml:space="preserve">
<style type="text/css">
	.st0{fill:#FFFF78;stroke:#000000;stroke-miterlimit:10;}
</style>
<circle class="st0" cx="149" cy="149.8" r="54"/>
<path class="st0" d="M211.6,149.6L211.6,149.6c0,3.9,3.2,7.1,7.1,7.1h42.5c3.9,0,7.1-3.2,7.1-7.1v0c0-3.9-3.2-7.1-7.1-7.1h-42.5  C214.8,142.5,211.6,145.7,211.6,149.6z"/>
<path class="st0" d="M29.6,149.6L29.6,149.6c0,3.9,3.2,7.1,7.1,7.1h42.5c3.9,0,7.1-3.2,7.1-7.1v0c0-3.9-3.2-7.1-7.1-7.1H36.7  C32.8,142.5,29.6,145.7,29.6,149.6z"/>
<path class="st0" d="M149.5,86.8L149.5,86.8c3.9,0,7.1-3.2,7.1-7.1V37.2c0-3.9-3.2-7.1-7.1-7.1h0c-3.9,0-7.1,3.2-7.1,7.1v42.5  C142.4,83.7,145.6,86.8,149.5,86.8z"/>
<path class="st0" d="M148.8,268.6L148.8,268.6c3.9,0,7.1-3.2,7.1-7.1V219c0-3.9-3.2-7.1-7.1-7.1h0c-3.9,0-7.1,3.2-7.1,7.1v42.5  C141.7,265.4,144.9,268.6,148.8,268.6z"/>
<path class="st0" d="M102.8,104.3L102.8,104.3c2.8-2.8,2.8-7.3,0-10L72.7,64.2c-2.8-2.8-7.3-2.8-10,0l0,0c-2.8,2.8-2.8,7.3,0,10  l30.1,30.1C95.5,107.1,100,107.1,102.8,104.3z"/>
<path class="st0" d="M231.6,235.4L231.6,235.4c2.8-2.8,2.8-7.3,0-10l-30.1-30.1c-2.8-2.8-7.3-2.8-10,0v0c-2.8,2.8-2.8,7.3,0,10  l30.1,30.1C224.4,238.2,228.9,238.2,231.6,235.4z"/>
<path class="st0" d="M62.7,234.9L62.7,234.9c2.8,2.8,7.3,2.8,10,0l30.1-30.1c2.8-2.8,2.8-7.3,0-10l0,0c-2.8-2.8-7.3-2.8-10,0  l-30.1,30.1C59.9,227.6,59.9,232.1,62.7,234.9z"/>
<path class="st0" d="M195.6,104.3L195.6,104.3c2.8,2.8,7.3,2.8,10,0l30.1-30.1c2.8-2.8,2.8-7.3,0-10l0,0c-2.8-2.8-7.3-2.8-10,0  l-30.1,30.1C192.8,97.1,192.8,101.6,195.6,104.3z"/>
</svg>
