<?xml version="1.0" encoding="utf-8"?>
<!-- Generator: Adobe Illustrator 24.3.0, SVG Export Plug-In . SVG Version: 6.00 Build 0)  -->
<svg xmlns="http://www.w3.org/2000/svg" xmlns:xlink="http://www.w3.org/1999/xlink" version="1.1" id="Layer_1" x="0px" y="0px" viewBox="0 0 283.46 283.46" style="enable-background:new 0 0 283.46 283.46;" xml:space="preserve">
<style type="text/css">
	.st0{fill:#E74612;}
	.st1{fill:#E0E0E0;}
	.st2{fill:#94A1AB;}
	.st3{fill:#7F2204;}
	.st4{fill:#B666D8;}
	.st5{fill:#651976;}
	.st6{fill:#039BE5;}
	.st7{fill:#01579B;}
	.st8{fill:#005BAD;}
	.st9{fill:#2E3191;}
	.st10{fill:#AD300E;}
	.st11{fill:#510D06;}
	.st12{fill:#05C8E2;}
	.st13{fill:#003C93;}
	.st14{fill:#94AAB2;}
	.st15{fill:#728489;}
	.st16{fill:#485054;}
	.st17{fill:#FFFFFF;}
	.st18{fill:#FE4109;}
	.st19{fill:#9EA6D8;}
	.st20{fill:#E7E9F6;}
	.st21{fill:#7383BF;}
	.st22{fill:#C4C8E8;}
	.st23{fill:#AFB6BB;}
	.st24{fill:#808689;}
	.st25{fill:#F8BF33;}
	.st26{fill:#231F20;}
	.st27{fill:#6D6E70;}
	.st28{fill:#929497;}
	.st29{fill:#A6A8AB;}
	.st30{fill:#808184;}
	.st31{fill:none;stroke:#039BE5;stroke-width:15;stroke-miterlimit:10;}
	.st32{fill:none;stroke:#E74612;stroke-width:15;stroke-miterlimit:10;}
	.st33{fill:#E6E7E8;}
	.st34{fill:#404041;}
	.st35{fill:#5E5F60;}
	.st36{fill:#A3A5A8;}
</style>
<g>
	<circle class="st1" cx="141.73" cy="226.06" r="53.01"/>
	<path class="st1" d="M141.73,4.39c-14.92,0-27.01,12.09-27.01,27.01v154.13h54.03V31.41C168.75,16.49,156.65,4.39,141.73,4.39z"/>
	<rect x="114.72" y="235.27" class="st12" width="54.03" height="21.79"/>
	<rect x="141.73" y="45.78" class="st2" width="27.01" height="13.72"/>
	<rect x="141.73" y="73.23" class="st2" width="27.01" height="13.72"/>
	<rect x="141.73" y="100.68" class="st2" width="27.01" height="13.72"/>
	<rect x="141.73" y="128.13" class="st2" width="27.01" height="13.72"/>
	<rect x="141.73" y="155.58" class="st2" width="27.01" height="13.72"/>
	<path class="st13" d="M141.73,279.07c29.28,0,53.01-23.73,53.01-53.01H88.72C88.72,255.34,112.45,279.07,141.73,279.07z"/>
</g>
</svg>
